<?xml version="1.0" encoding="iso-8859-1"?>
<!-- Generator: Adobe Illustrator 19.0.0, SVG Export Plug-In . SVG Version: 6.00 Build 0)  -->
<svg version="1.1" id="Capa_1" xmlns="http://www.w3.org/2000/svg" x="0px" y="0px"
	 viewBox="0 0 512 512" style="enable-background:new 0 0 512 512;" xml:space="preserve">
<path style="fill:#F2427F;" d="M403.296,366.848V160.565c0-70.335-48.23-129.401-113.42-145.943
	c-65.19,16.542-113.42,75.608-113.42,145.943v207.318L403.296,366.848z"/>
<path style="fill:#00C3FF;" d="M412.169,369.04c-7.481-1.906-15.289-3.742-23.386-5.481c-21.208-4.555-44.472-8.42-69.582-10.947
	l-21.408,18.872L256,408.324l-49.225-45.102c-8.829,1.873-17.315,3.865-25.418,5.936c-37.133,9.491-63.021,43.075-63.021,81.402
	v22.785c0,15.826,12.829,28.655,28.655,28.655h300.018c15.826,0,28.655-12.829,28.655-28.655v-22.781
	C475.664,412.054,449.487,378.545,412.169,369.04z"/>
<rect x="189.55" y="271.45" style="fill:#FFFFFF;" width="132.81" height="139.95"/>
<rect x="243.42" y="271.45" style="fill:#FF991F;" width="78.937" height="139.95"/>
<polygon style="fill:#FFD41D;" points="269.339,417.076 262.052,421.711 248.776,502 295.098,502 277.171,422.215 "/>
<polygon style="fill:#FFFFFF;" points="203.462,348.463 180.416,323.831 157.776,353.559 197.524,444.199 218.951,430.57 
	190.442,365.559 "/>
<polygon style="fill:#0084FF;" points="203.462,348.463 190.442,365.559 218.951,430.57 257.402,406.113 "/>
<polygon style="fill:#FFFFFF;" points="334.388,318.943 257.402,406.113 281.446,421.89 350.649,343.533 "/>
<polygon style="fill:#0084FF;" points="359.44,356.826 350.649,343.533 281.446,421.89 315.447,444.199 "/>
<path style="fill:#FFFFFF;" d="M215.207,212.635v-66.488c0-1.855,0.184-3.667,0.524-5.423h-41.604
	c-12.145,0-21.99,9.845-21.99,21.99v51.514c0,56.208,45.566,101.774,101.774,101.774l0,0c3.672,0,7.298-0.199,10.87-0.578
	C234.573,291.357,215.207,254.26,215.207,212.635z"/>
<path style="fill:#FFD41D;" d="M355.685,214.228V159.86c0-10.569-8.568-19.136-19.136-19.136h-46.663
	c-13.626,0-26.457-6.413-34.637-17.31c-9.167,10.97-22.727,17.31-37.023,17.31h-2.494c-0.34,1.756-0.524,3.568-0.524,5.423v66.488
	c0,41.625,19.366,78.721,49.573,102.788C315.877,309.998,355.685,266.764,355.685,214.228z"/>
<polygon style="fill:#FFFFFF;" points="269.339,417.076 256,408.324 234.954,421.711 221.677,502 248.776,502 262.052,421.711 "/>
<circle cx="215.21" cy="191.34" r="9.999"/>
<circle cx="292.06" cy="191.34" r="9.999"/>
<path d="M414.637,359.349c-18.115-4.614-36.63-8.466-55.104-11.487l-19.98-30.213c-1.716-2.595-4.542-4.243-7.646-4.459
	c-3.098-0.22-6.131,1.024-8.19,3.356l-67.929,76.914l-67.695-72.352c-2.012-2.15-4.861-3.293-7.809-3.155
	c-2.94,0.149-5.666,1.586-7.449,3.929l-19.7,25.868c-13.691,2.224-27.405,4.902-40.968,8.016v-195.2
	C112.166,83.057,175.223,20,252.731,20s140.565,63.057,140.565,140.565v129.387c0,5.523,4.477,10,10,10s10-4.477,10-10V160.565
	C413.296,72.029,341.267,0,252.73,0C164.195,0,92.166,72.029,92.166,160.565v200.256c-38.996,12.159-65.83,48.372-65.83,89.739
	v22.785c0,21.314,17.341,38.655,38.655,38.655h382.018c21.314,0,38.655-17.341,38.655-38.655v-22.781
	C485.664,407.51,456.457,370.001,414.637,359.349z M330.068,339.566l14.078,21.288l-35.329,70.166l-37.683-24.726L330.068,339.566z
	 M181.574,343.415l58.889,62.94l-38.486,24.48l-31.783-72.477L181.574,343.415z M46.336,473.345V450.56
	c0-33.872,22.821-63.362,55.497-71.714c16.703-4.269,33.754-7.876,50.792-10.751l35.719,81.453c1.172,2.673,3.454,4.701,6.246,5.55
	c0.954,0.291,1.935,0.434,2.912,0.434c1.881,0,3.746-0.531,5.367-1.562l18.567-11.81L213.195,492H64.991
	C54.705,492,46.336,483.631,46.336,473.345z M233.467,492l10.624-64.249l11.825-7.521l12.386,8.127l14.3,63.644h-49.135V492z
	 M465.664,473.345c0,10.287-8.369,18.655-18.655,18.655H303.1l-10.755-47.868l14.876,9.761c2.382,1.565,5.321,2.038,8.074,1.298
	c2.753-0.738,5.062-2.616,6.343-5.162l40.967-81.366c15.804,2.752,31.601,6.12,47.095,10.066
	c32.951,8.394,55.964,37.933,55.964,71.834V473.345z"/>
<path d="M289.885,130.724c-10.423,0-20.381-4.977-26.639-13.313c-1.833-2.443-4.683-3.914-7.736-3.994
	c-3.038-0.089-5.976,1.24-7.935,3.584c-7.288,8.721-17.985,13.723-29.35,13.723h-44.098c-17.64,0-31.99,14.351-31.99,31.99v51.514
	c0,61.632,50.142,111.774,111.774,111.774s111.773-50.142,111.773-111.774V159.86c0-16.066-13.07-29.136-29.136-29.136H289.885z
	 M345.685,159.86v54.368c0,50.604-41.169,91.774-91.773,91.774l0,0c-50.604,0-91.773-41.169-91.773-91.774v-51.514
	c0-6.611,5.379-11.99,11.99-11.99h44.098c13.536,0,26.451-4.66,36.746-13.044c9.607,8.299,22.039,13.044,34.914,13.044h46.664
	C341.586,150.724,345.685,154.823,345.685,159.86z"/>
<path d="M269.523,247.665c-3.687,3.687-8.589,5.718-13.803,5.718c-5.477,0-10.736-2.323-14.43-6.373
	c-3.722-4.081-10.047-4.372-14.127-0.65c-4.081,3.722-4.372,10.046-0.65,14.127c7.475,8.196,18.12,12.896,29.208,12.896
	c10.557,0,20.481-4.111,27.946-11.575c3.905-3.905,3.905-10.237,0-14.143S273.429,243.759,269.523,247.665z"/>
<circle cx="403.3" cy="327.94" r="10"/>
<g>
</g>
<g>
</g>
<g>
</g>
<g>
</g>
<g>
</g>
<g>
</g>
<g>
</g>
<g>
</g>
<g>
</g>
<g>
</g>
<g>
</g>
<g>
</g>
<g>
</g>
<g>
</g>
<g>
</g>
</svg>
