<?xml version="1.0" encoding="iso-8859-1"?>
<!-- Generator: Adobe Illustrator 19.0.0, SVG Export Plug-In . SVG Version: 6.00 Build 0)  -->
<svg version="1.1" id="Capa_1" xmlns="http://www.w3.org/2000/svg" x="0px" y="0px"
	 viewBox="0 0 512.002 512.002" style="enable-background:new 0 0 512.002 512.002;" xml:space="preserve">
<rect x="233.843" y="267.545" style="fill:#FF991F;" width="98.845" height="143.581"/>
<path style="fill:#00C3FF;" d="M480.93,472.653v-23.326c0-39.433-26.805-73.745-65.017-83.479
	c-8.86-2.257-18.155-4.423-27.857-6.443l-29.981-6.129l-61.754,17.255l-40.32,35.543l-51.305-47.009
	c-10.471,2.154-20.48,4.476-29.98,6.903c-38.022,9.718-64.532,44.108-64.532,83.352v23.331c0,16.206,13.137,29.342,29.342,29.342
	h312.061C467.792,501.994,480.93,488.858,480.93,472.653z"/>
<polygon style="fill:#FFFFFF;" points="202.042,348.403 178.987,323.762 156.339,353.501 196.101,444.173 217.536,430.539 
	189.017,365.505 "/>
<polygon style="fill:#0084FF;" points="202.042,348.403 189.017,365.505 217.536,430.539 256.001,406.074 "/>
<polygon style="fill:#FFFFFF;" points="333.014,318.873 256.001,406.074 280.053,421.856 349.281,343.471 "/>
<polygon style="fill:#0084FF;" points="358.074,356.769 349.281,343.471 280.053,421.856 314.066,444.173 "/>
<path style="fill:#F2427F;" d="M226.71,43.057c-16.654,0-30.154,13.5-30.154,30.154h-12.224c-23.713,0-42.936,19.224-42.936,42.936
	v93.915c0,8.159,1.048,15.912,3.135,22.932c3.388,0.733,7.014,1.123,10.884,1.123h43.131v-126.32h156.792
	c25.928,0,46.948-21.019,46.948-46.948V43.057H226.71z"/>
<path style="fill:#FFFFFF;" d="M204.525,207.326v-52.495c0-25.975,21.057-47.032,47.033-47.032h-54.876
	c-25.975,0-47.033,21.057-47.033,47.032v52.495c0,57.555,46.657,104.213,104.213,104.213l0,0c9.497,0,18.695-1.277,27.438-3.658
	C237.057,295.837,204.525,255.383,204.525,207.326z"/>
<path style="fill:#FFD41D;" d="M358.074,207.326v-61.819v-12.836v-24.873H251.556c-25.975,0-47.033,21.057-47.033,47.032v52.495
	c0,48.058,32.533,88.51,76.775,100.555C325.542,295.837,358.074,255.383,358.074,207.326z"/>
<polygon style="fill:#FFFFFF;" points="269.788,415.12 256.001,406.074 234.449,419.781 220.856,501.994 248.865,501.994 
	262.459,419.781 "/>
<polygon style="fill:#FFD41D;" points="269.788,415.12 262.459,419.781 248.865,501.994 296.035,501.994 277.679,420.298 "/>
<circle cx="214.226" cy="171.261" r="10.413"/>
<circle cx="292.924" cy="171.261" r="10.413"/>
<path d="M418.381,356.154c-19.329-4.924-36.487-8.89-56.751-12.144l-20.271-30.655c-1.717-2.596-4.544-4.245-7.649-4.461
	c-3.102-0.225-6.133,1.024-8.193,3.357l-69.73,78.953l-69.496-74.275c-2.013-2.151-4.864-3.293-7.812-3.156
	c-2.941,0.149-5.668,1.587-7.452,3.93l-19.944,26.188c-20.813,3.315-38.288,7.359-57.957,12.386
	c-42.427,10.844-72.058,49.105-72.058,93.045v23.331c0,21.696,17.65,39.346,39.346,39.346h160.418c0.012,0,0.024,0.001,0.036,0.001
	c0.011,0,0.022-0.001,0.033-0.001h75.081c0.015,0,0.03,0.002,0.045,0.002c0.012,0,0.024-0.002,0.035-0.002h155.525
	c21.696,0,39.346-17.65,39.346-39.346v-23.326C490.933,405.348,461.098,367.034,418.381,356.154z M331.871,335.28l14.661,22.17
	l-36.356,72.207l-39.036-25.613L331.871,335.28z M255.916,417.984l12.891,8.458l14.728,65.55h-50.886l10.942-66.168L255.916,417.984
	z M179.772,339.244l60.686,64.86l-39.881,25.367l-32.711-74.593L179.772,339.244z M41.075,472.653v-23.331
	c0-34.792,23.441-65.083,57.005-73.661c17.822-4.555,33.759-8.274,52.077-11.346l36.781,83.876c1.172,2.674,3.455,4.702,6.248,5.552
	c2.793,0.85,5.818,0.437,8.282-1.128l19.458-12.376l-8.558,51.753H60.414C49.751,491.991,41.075,483.316,41.075,472.653z
	 M470.926,472.653c0,10.663-8.675,19.339-19.339,19.339H304.041l-11.183-49.769l15.721,10.315c1.647,1.08,3.556,1.64,5.488,1.64
	c0.866,0,1.737-0.112,2.589-0.341c2.755-0.738,5.064-2.617,6.345-5.164l42.184-83.782c16.721,2.922,31.651,6.42,48.258,10.651
	c33.845,8.621,57.482,38.963,57.482,73.785L470.926,472.653L470.926,472.653z"/>
<path d="M145.464,243.328c15.115,45.392,57.994,78.215,108.398,78.215c62.979,0,114.216-51.237,114.216-114.216v-90.978
	c25.287-5.804,44.212-28.474,44.212-55.497V47.407c0-5.525-4.479-10.004-10.004-10.004s-10.004,4.479-10.004,10.004v13.445
	c0,20.371-16.573,36.944-36.944,36.944H198.546c-0.315,0-0.625,0.019-0.932,0.047c-0.307-0.029-0.618-0.047-0.932-0.047
	c-31.449,0-57.036,25.586-57.036,57.036v52.496c0,4.723,0.294,9.377,0.853,13.951c-20.331-8.735-22.153-35.208-22.153-44.269V83.093
	c0-18.159,14.774-32.933,32.933-32.933h12.224c5.525,0,10.004-4.479,10.004-10.004c0-11.11,9.039-20.15,20.15-20.15h164.809
	c5.525,0,10.004-4.479,10.004-10.004S363.99,0,358.465,0H193.656c-18.69,0-34.439,12.836-38.896,30.154h-3.481
	c-29.191,0-52.94,23.748-52.94,52.94v93.915C98.338,213.44,116.598,238.674,145.464,243.328z M159.652,154.831
	c0-20.418,16.611-37.029,37.029-37.029c0.315,0,0.625-0.019,0.932-0.047c0.307,0.029,0.618,0.047,0.932,0.047h149.525v89.524
	c0,51.947-42.262,94.209-94.209,94.209s-94.209-42.262-94.209-94.209L159.652,154.831L159.652,154.831z"/>
<path d="M255.897,264.596c13.801,0,26.777-5.375,36.536-15.133c3.906-3.906,3.906-10.241,0-14.148
	c-3.906-3.906-10.241-3.906-14.148,0c-5.98,5.981-13.932,9.274-22.389,9.274c-8.883,0-17.413-3.767-23.403-10.337
	c-3.722-4.081-10.049-4.374-14.132-0.651c-4.082,3.723-4.374,10.05-0.651,14.132C227.482,258.449,241.401,264.596,255.897,264.596z"
	/>
<circle cx="402.283" cy="10.004" r="10.004"/>
<g>
</g>
<g>
</g>
<g>
</g>
<g>
</g>
<g>
</g>
<g>
</g>
<g>
</g>
<g>
</g>
<g>
</g>
<g>
</g>
<g>
</g>
<g>
</g>
<g>
</g>
<g>
</g>
<g>
</g>
</svg>
